<svg xmlns="http://www.w3.org/2000/svg" width="25.72" height="25.72"><path id="IG" d="M1452.5 3405.73a3.22 3.22 0 002.33.97h19.12a3.329 3.329 0 003.3-3.3v-19.12a3.329 3.329 0 00-3.3-3.3h-19.12a3.22 3.22 0 00-2.33.97 3.18 3.18 0 00-.97 2.33v19.12a3.18 3.18 0 00.97 2.33zm1.89-13.86h2.36a7.261 7.261 0 00-.33 2.19 7.351 7.351 0 002.34 5.48 7.861 7.861 0 005.65 2.27 8.019 8.019 0 004.01-1.04 7.828 7.828 0 002.92-2.82 7.468 7.468 0 001.07-3.89 6.967 6.967 0 00-.34-2.19h2.26v10.84a1.007 1.007 0 01-1.02 1.02h-17.89a.95.95 0 01-.73-.29.973.973 0 01-.3-.73v-10.84zm10.02-3.09a5.058 5.058 0 013.65 1.47 4.882 4.882 0 010 7.08 5.266 5.266 0 01-7.3 0 4.9 4.9 0 010-7.08 5.058 5.058 0 013.65-1.47zm4.7-3.78a1.134 1.134 0 01.33-.81 1.11 1.11 0 01.82-.34h2.92a1.11 1.11 0 01.82.34 1.134 1.134 0 01.33.81v2.76a1.144 1.144 0 01-1.15 1.16h-2.92a1.144 1.144 0 01-1.15-1.16V3385z" transform="translate(-1451.53 -3380.97)" fill="#1a1a1a" fill-rule="evenodd"/></svg>